<?xml version="1.0" encoding="iso-8859-1"?>
<!-- Generator: Adobe Illustrator 19.0.0, SVG Export Plug-In . SVG Version: 6.00 Build 0)  -->
<svg style='fill: #fff !important;'  version="1.1" id="Capa_1" xmlns="http://www.w3.org/2000/svg" xmlns:xlink="http://www.w3.org/1999/xlink" x="0px" y="0px"
	 viewBox="0 0 511.999 511.999" xml:space="preserve">
<g>
	<g>
		<path d="M473.534,268.619c-5.651-0.006-10.869,1.373-15.497,3.45c-7.036-8.993-17.957-14.822-30.268-14.828
			c-6.362-0.006-12.214,1.688-17.242,4.217l-0.526,0.292l-15.72,9.324c-7.047-8.427-17.602-13.827-29.444-13.833
			c-6.362-0.006-12.214,1.688-17.242,4.217l-0.629,0.355l-60.187,36.863c-13.586-4.016-28.683-8.421-43.265-12.557
			c-15.383-4.365-30.177-8.421-42.035-11.407c-5.938-1.499-11.132-2.729-15.377-3.604c-2.128-0.441-4.01-0.796-5.692-1.046
			c-1.699-0.252-3.118-0.429-4.719-0.435c-1.236,0.006-2.306,0.114-3.524,0.263c-4.433,0.584-10.732,1.94-18.175,3.678
			c-15.189,3.57-34.586,8.764-45.301,11.681v-18.135c0-12.585-10.297-22.883-22.883-22.883H22.883
			C10.297,244.232,0,254.529,0,267.114v177.339c0,12.585,10.297,22.883,22.883,22.883h62.926c12.585,0,22.883-10.297,22.883-22.883
			v-13.769c13.581,2.957,43.723,9.462,75.501,15.994c21.493,4.411,43.705,8.827,62.051,12.151
			c9.176,1.664,17.385,3.055,24.107,4.039c6.779,0.984,11.83,1.585,15.68,1.608c2.997-0.018,5.835-0.584,8.901-1.425
			c5.704-1.602,12.196-4.336,19.627-7.946c25.862-12.602,63.006-36.229,98.045-59.603c34.976-23.346,67.692-46.399,83.721-57.435
			c10.034-6.922,15.675-18.609,15.675-30.971C511.988,285.85,494.78,268.625,473.534,268.619z M91.529,444.448
			c0,3.1-2.62,5.72-5.72,5.72H22.883c-3.1,0-5.72-2.62-5.72-5.72V267.109c0-3.1,2.62-5.72,5.72-5.72h62.926
			c3.1,0,5.72,2.62,5.72,5.72V444.448z M486.594,323.926c-19.713,13.575-63.825,44.729-106.523,72.457
			c-21.332,13.855-42.309,26.847-59.511,36.268c-8.592,4.703-16.258,8.512-22.385,11.058c-3.06,1.269-5.738,2.225-7.861,2.814
			c-2.111,0.595-3.702,0.801-4.279,0.789c-1.871,0.017-6.824-0.48-13.191-1.425c-22.539-3.301-64.728-11.733-101.055-19.307
			c-18.18-3.787-59.688-12.723-63.093-13.467V303.04c1.677-0.464,3.873-1.064,6.51-1.779c9.045-2.454,22.848-6.133,35.228-9.181
			c6.184-1.528,12.025-2.895,16.664-3.856c2.311-0.486,4.331-0.863,5.881-1.11c1.521-0.252,2.705-0.343,2.717-0.326
			c0.029-0.011,0.927,0.051,2.151,0.241c4.737,0.704,14.444,2.98,26.268,6.075c35.634,9.308,91.821,26.132,114.521,33.025
			c7.854,2.368,14.965,5.938,19.633,10.274c2.346,2.163,4.108,4.474,5.292,6.973c1.184,2.511,1.853,5.229,1.865,8.552
			c-0.006,6.733-2.706,12.751-7.116,17.173c-4.376,4.365-10.32,7.031-16.956,7.094l-22.156-2.174l-75.581-9.696
			c-4.703-0.6-9.005,2.723-9.611,7.419c-0.6,4.703,2.723,8.998,7.42,9.605l75.82,9.73l23.472,2.299h0.417
			c22.888-0.011,41.44-18.558,41.452-41.452c0.011-5.767-1.264-11.178-3.524-15.92c-3.403-7.145-8.878-12.677-15.068-16.888
			c-6.213-4.222-13.226-7.23-20.365-9.411c-3.981-1.207-8.998-2.729-14.736-4.445l46.577-28.529c3.02-1.487,6.11-2.328,9.382-2.328
			c5.544-0.006,10.56,2.145,14.348,5.618l-23.008,13.65c-4.073,2.415-5.417,7.683-2.997,11.756
			c2.415,4.079,7.683,5.423,11.761,3.004l53.408-31.675c3.037-1.505,6.144-2.351,9.427-2.351c5.921-0.006,11.241,2.46,15.108,6.367
			l-62.189,36.881c-4.073,2.415-5.417,7.683-2.997,11.756c2.42,4.079,7.683,5.423,11.761,3.004l67.245-39.884
			c0.652-0.114,1.31-0.274,1.951-0.544c1.378-0.589,2.5-1.51,3.363-2.609l2.099-1.247c3.037-1.505,6.144-2.351,9.427-2.351
			c5.898,0.006,11.172,2.368,15.057,6.242c3.867,3.89,6.235,9.164,6.242,15.073C494.832,314.281,491.537,320.556,486.594,323.926z"
			/>
	</g>
</g>
<g>
	<g>
		<path d="M311.361,134.779c8.558-7.506,13.993-18.489,13.998-30.777c-0.011-22.642-18.358-40.971-40.977-40.977h-12.196V52.672
			c0-4.422-3.581-8.009-8.003-8.009s-8.009,3.586-8.009,8.009v10.354h-12.574V52.672c0-4.422-3.581-8.009-8.003-8.009
			s-8.009,3.586-8.009,8.009v10.354h-10.205c-4.422,0-8.009,3.586-8.009,8.008c0,4.422,3.586,8.003,8.009,8.003h10.205V200.16
			h-10.205c-4.422,0-8.009,3.581-8.009,8.003s3.586,8.009,8.009,8.009h10.205v10.887c0,4.422,3.586,8.003,8.009,8.003
			s8.003-3.581,8.003-8.003v-10.887h12.574v10.887c0,4.422,3.586,8.003,8.008,8.003s8.003-3.581,8.003-8.003v-10.887h17.465
			c24.084-0.006,43.609-19.519,43.609-43.609C333.26,156.386,324.433,142.308,311.361,134.779z M243.606,79.038l40.788,0.005
			c6.911,0.006,13.1,2.781,17.642,7.311c4.531,4.542,7.311,10.731,7.311,17.648c0,6.911-2.781,13.1-7.311,17.642
			c-4.542,4.531-10.732,7.305-17.642,7.311h-40.788V79.038z M309.17,192.078c-5.017,5.006-11.864,8.077-19.507,8.084h-46.057V144.98
			h46.057c7.643,0.006,14.491,3.072,19.507,8.077c5.011,5.022,8.084,11.864,8.084,19.513
			C317.253,180.212,314.181,187.06,309.17,192.078z"/>
	</g>
</g>
<g>
</g>
<g>
</g>
<g>
</g>
<g>
</g>
<g>
</g>
<g>
</g>
<g>
</g>
<g>
</g>
<g>
</g>
<g>
</g>
<g>
</g>
<g>
</g>
<g>
</g>
<g>
</g>
<g>
</g>
</svg>
