<?xml version="1.0" encoding="iso-8859-1"?>
<!-- Generator: Adobe Illustrator 19.0.0, SVG Export Plug-In . SVG Version: 6.00 Build 0)  -->
<svg style='fill: #fff !important;'  version="1.1" id="Capa_1" xmlns="http://www.w3.org/2000/svg" xmlns:xlink="http://www.w3.org/1999/xlink" x="0px" y="0px"
	 viewBox="0 0 512 512" xml:space="preserve">
<g>
	<g>
		<path d="M240.954,329.111c-4.55-4.573-11.904-4.573-16.454-0.023l-43.136,43.171h-30.092c-6.435,0-11.636,5.213-11.636,11.648
			v23.284h-23.273c-6.435,0-11.636,5.213-11.636,11.648v23.284H81.455c-6.423,0-11.636,5.213-11.636,11.648v30.115l-4.817,4.818
			H23.273v-41.751l194.397-194.56c4.55-4.538,4.55-11.916,0.012-16.465l-3.409-3.421c-3.107-3.095-4.806-7.215-4.806-11.602v-0.047
			c0-6.435-5.201-11.625-11.636-11.625c-6.435,0-11.636,5.236-11.636,11.671c0,8.297,2.525,16.209,7.215,22.842L3.409,433.896
			C1.222,436.084,0,439.039,0,442.135v58.228c0,6.423,5.213,11.636,11.636,11.636h58.182c3.084,0,6.051-1.233,8.227-3.409
			l11.636-11.648c2.188-2.188,3.409-5.143,3.409-8.227v-23.284h23.273c6.435,0,11.636-5.213,11.636-11.648v-23.284h23.273
			c6.435,0,11.636-5.213,11.636-11.648v-23.284h23.273c3.095,0,6.051-1.233,8.227-3.409l46.545-46.58
			C245.504,341.026,245.504,333.66,240.954,329.111z"/>
	</g>
</g>
<g>
	<g>
		<path d="M421.318,136.959l-46.545-46.58c-13.708-13.743-37.655-13.743-51.363,0c-14.161,14.173-14.161,37.236,0,51.398
			l46.545,46.58c6.854,6.865,15.977,10.647,25.681,10.647c9.705,0,18.828-3.782,25.681-10.647
			C435.479,174.184,435.479,151.121,421.318,136.959z M404.864,171.88c-4.934,4.934-13.521,4.934-18.455,0l-46.545-46.58
			c-5.073-5.085-5.073-13.37,0-18.467c2.467-2.467,5.737-3.828,9.228-3.828s6.761,1.361,9.228,3.828l46.545,46.58
			C409.949,158.498,409.949,166.795,404.864,171.88z"/>
	</g>
</g>
<g>
	<g>
		<path d="M500.364,146.187L365.545,11.263c-15.023-15.011-41.158-15.023-56.18,0L197.818,122.891
			c-7.505,7.505-11.636,17.489-11.636,28.113c0,10.624,4.131,20.608,11.636,28.113l111.546,111.628l-6.842,6.854
			c-3.095,3.095-7.215,4.806-11.59,4.806h-0.012c-4.387,0-8.518-1.711-11.625-4.817l-32.524-32.547c-4.55-4.55-11.904-4.55-16.454,0
			l-64,64.047c-4.55,4.55-4.55,11.916,0,16.465c2.269,2.269,5.248,3.409,8.227,3.409s5.958-1.14,8.227-3.409l55.773-55.808
			l24.297,24.308c7.505,7.505,17.466,11.636,28.09,11.636c0.012,0,0.023,0,0.035,0c10.589-0.012,20.538-4.154,28.009-11.636
			l15.069-15.081c4.55-4.55,4.55-11.916,0-16.465L214.272,162.641c-3.119-3.107-4.817-7.238-4.817-11.636
			c0-4.399,1.699-8.529,4.817-11.648L325.818,27.74c6.225-6.237,17.047-6.225,23.273,0L483.91,162.664
			c3.119,3.107,4.818,7.238,4.818,11.636s-1.699,8.529-4.818,11.648L372.364,297.564c-3.119,3.119-7.238,4.829-11.636,4.829
			c-6.435,0-11.636,5.213-11.636,11.648c0,6.435,5.201,11.648,11.636,11.648c10.601,0,20.585-4.131,28.09-11.648l111.546-111.628
			C507.869,194.908,512,184.924,512,174.3C512,163.665,507.869,153.681,500.364,146.187z"/>
	</g>
</g>
<g>
</g>
<g>
</g>
<g>
</g>
<g>
</g>
<g>
</g>
<g>
</g>
<g>
</g>
<g>
</g>
<g>
</g>
<g>
</g>
<g>
</g>
<g>
</g>
<g>
</g>
<g>
</g>
<g>
</g>
</svg>
