<?xml version="1.0" encoding="iso-8859-1"?>
<!-- Generator: Adobe Illustrator 19.0.0, SVG Export Plug-In . SVG Version: 6.00 Build 0)  -->
<svg style='fill: #fff !important;'  version="1.1" id="Capa_1" xmlns="http://www.w3.org/2000/svg" xmlns:xlink="http://www.w3.org/1999/xlink" x="0px" y="0px"
	 viewBox="0 0 512 512" xml:space="preserve">
<g>
	<g>
		<path d="M473.6,0H38.4C17.229,0,0,17.229,0,38.4v435.2C0,494.771,17.229,512,38.4,512h435.2c21.171,0,38.4-17.229,38.4-38.4V38.4
			C512,17.229,494.771,0,473.6,0z M494.933,473.6c0,11.767-9.566,21.333-21.333,21.333H38.4c-11.759,0-21.333-9.566-21.333-21.333
			V38.4c0-11.768,9.574-21.333,21.333-21.333h435.2c11.759,0,21.333,9.566,21.333,21.333V473.6z"/>
	</g>
</g>
<g>
	<g>
		<path d="M76.8,34.133H42.667c-4.71,0-8.533,3.814-8.533,8.533V76.8c0,4.719,3.823,8.533,8.533,8.533H76.8
			c4.71,0,8.533-3.814,8.533-8.533V42.667C85.333,37.948,81.51,34.133,76.8,34.133z M68.267,68.267H51.2V51.2h17.067V68.267z"/>
	</g>
</g>
<g>
	<g>
		<path d="M145.067,34.133h-34.133c-4.71,0-8.533,3.814-8.533,8.533V76.8c0,4.719,3.823,8.533,8.533,8.533h34.133
			c4.71,0,8.533-3.814,8.533-8.533V42.667C153.6,37.948,149.777,34.133,145.067,34.133z M136.533,68.267h-17.067V51.2h17.067V68.267
			z"/>
	</g>
</g>
<g>
	<g>
		<path d="M213.333,34.133H179.2c-4.71,0-8.533,3.814-8.533,8.533V76.8c0,4.719,3.823,8.533,8.533,8.533h34.133
			c4.71,0,8.533-3.814,8.533-8.533V42.667C221.867,37.948,218.044,34.133,213.333,34.133z M204.8,68.267h-17.067V51.2H204.8V68.267z
			"/>
	</g>
</g>
<g>
	<g>
		<path d="M473.6,0H38.4C17.229,0,0,17.229,0,38.4v72.533c0,4.719,3.823,8.533,8.533,8.533h494.933c4.71,0,8.533-3.814,8.533-8.533
			V38.4C512,17.229,494.771,0,473.6,0z M494.933,102.4H17.067v-64c0-11.768,9.574-21.333,21.333-21.333h435.2
			c11.759,0,21.333,9.566,21.333,21.333V102.4z"/>
	</g>
</g>
<g>
	<g>
		<path d="M125.5,164.634c-3.328-3.337-8.738-3.337-12.066,0L79.3,198.767c-3.337,3.336-3.337,8.73,0,12.066
			c1.664,1.664,3.849,2.5,6.033,2.5c2.185,0,4.369-0.836,6.033-2.5L125.5,176.7C128.836,173.363,128.836,167.97,125.5,164.634z"/>
	</g>
</g>
<g>
	<g>
		<path d="M159.633,198.767L125.5,164.634c-3.328-3.337-8.738-3.337-12.066,0c-3.337,3.337-3.337,8.73,0,12.066l34.133,34.133
			c1.664,1.664,3.849,2.5,6.033,2.5c2.185,0,4.369-0.836,6.033-2.5C162.97,207.497,162.97,202.104,159.633,198.767z"/>
	</g>
</g>
<g>
	<g>
		<path d="M176.7,147.567c-3.328-3.337-8.738-3.337-12.066,0L130.5,181.7c-3.337,3.337-3.337,8.73,0,12.066
			c1.664,1.664,3.849,2.5,6.033,2.5c2.185,0,4.369-0.836,6.033-2.5l34.133-34.133C180.036,156.297,180.036,150.904,176.7,147.567z"
			/>
	</g>
</g>
<g>
	<g>
		<path d="M210.833,181.7L176.7,147.567c-3.328-3.337-8.738-3.337-12.066,0c-3.337,3.337-3.337,8.73,0,12.066l34.133,34.133
			c1.664,1.664,3.849,2.5,6.033,2.5c2.185,0,4.369-0.836,6.033-2.5C214.17,190.43,214.17,185.037,210.833,181.7z"/>
	</g>
</g>
<g>
	<g>
		<path d="M204.8,273.067H68.267c-4.71,0-8.533,3.814-8.533,8.533c0,4.719,3.823,8.533,8.533,8.533H204.8
			c4.71,0,8.533-3.814,8.533-8.533C213.333,276.881,209.51,273.067,204.8,273.067z"/>
	</g>
</g>
<g>
	<g>
		<path d="M162.133,238.933H68.267c-4.71,0-8.533,3.814-8.533,8.533S63.556,256,68.267,256h93.867c4.71,0,8.533-3.814,8.533-8.533
			S166.844,238.933,162.133,238.933z"/>
	</g>
</g>
<g>
	<g>
		<path d="M364.433,164.634c-3.328-3.337-8.738-3.337-12.066,0l-34.133,34.133c-3.336,3.336-3.336,8.73,0,12.066
			c1.664,1.664,3.849,2.5,6.033,2.5c2.185,0,4.369-0.836,6.033-2.5l34.133-34.133C367.77,173.363,367.77,167.97,364.433,164.634z"/>
	</g>
</g>
<g>
	<g>
		<path d="M398.566,198.767l-34.133-34.133c-3.328-3.337-8.738-3.337-12.066,0c-3.337,3.337-3.337,8.73,0,12.066l34.133,34.133
			c1.664,1.664,3.849,2.5,6.033,2.5c2.185,0,4.369-0.836,6.033-2.5C401.903,207.497,401.903,202.104,398.566,198.767z"/>
	</g>
</g>
<g>
	<g>
		<path d="M415.633,147.567c-3.328-3.337-8.738-3.337-12.066,0L369.434,181.7c-3.336,3.337-3.336,8.73,0,12.066
			c1.664,1.664,3.849,2.5,6.033,2.5c2.185,0,4.369-0.836,6.033-2.5l34.133-34.133C418.97,156.297,418.97,150.904,415.633,147.567z"
			/>
	</g>
</g>
<g>
	<g>
		<path d="M449.766,181.7l-34.133-34.133c-3.328-3.337-8.738-3.337-12.066,0c-3.337,3.337-3.337,8.73,0,12.066l34.133,34.133
			c1.664,1.664,3.849,2.5,6.033,2.5c2.185,0,4.369-0.836,6.033-2.5C453.103,190.43,453.103,185.037,449.766,181.7z"/>
	</g>
</g>
<g>
	<g>
		<path d="M443.733,273.067H307.2c-4.71,0-8.533,3.814-8.533,8.533c0,4.719,3.823,8.533,8.533,8.533h136.533
			c4.71,0,8.533-3.814,8.533-8.533C452.267,276.881,448.444,273.067,443.733,273.067z"/>
	</g>
</g>
<g>
	<g>
		<path d="M401.067,238.933H307.2c-4.71,0-8.533,3.814-8.533,8.533S302.49,256,307.2,256h93.867c4.71,0,8.533-3.814,8.533-8.533
			S405.777,238.933,401.067,238.933z"/>
	</g>
</g>
<g>
	<g>
		<path d="M125.5,343.834c-3.328-3.337-8.738-3.337-12.066,0L79.3,377.967c-3.337,3.337-3.337,8.73,0,12.066
			c1.664,1.664,3.849,2.5,6.033,2.5c2.185,0,4.369-0.836,6.033-2.5L125.5,355.9C128.836,352.563,128.836,347.17,125.5,343.834z"/>
	</g>
</g>
<g>
	<g>
		<path d="M159.633,377.967L125.5,343.834c-3.328-3.337-8.738-3.337-12.066,0c-3.337,3.337-3.337,8.73,0,12.066l34.133,34.133
			c1.664,1.664,3.849,2.5,6.033,2.5c2.185,0,4.369-0.836,6.033-2.5C162.97,386.697,162.97,381.303,159.633,377.967z"/>
	</g>
</g>
<g>
	<g>
		<path d="M176.7,326.767c-3.328-3.337-8.738-3.337-12.066,0L130.5,360.9c-3.337,3.337-3.337,8.73,0,12.066
			c1.664,1.664,3.849,2.5,6.033,2.5c2.185,0,4.369-0.836,6.033-2.5l34.133-34.133C180.036,335.497,180.036,330.103,176.7,326.767z"
			/>
	</g>
</g>
<g>
	<g>
		<path d="M210.833,360.9L176.7,326.767c-3.328-3.337-8.738-3.337-12.066,0c-3.337,3.337-3.337,8.73,0,12.066l34.133,34.133
			c1.664,1.664,3.849,2.5,6.033,2.5c2.185,0,4.369-0.836,6.033-2.5C214.17,369.63,214.17,364.237,210.833,360.9z"/>
	</g>
</g>
<g>
	<g>
		<path d="M204.8,452.267H68.267c-4.71,0-8.533,3.814-8.533,8.533c0,4.719,3.823,8.533,8.533,8.533H204.8
			c4.71,0,8.533-3.814,8.533-8.533C213.333,456.081,209.51,452.267,204.8,452.267z"/>
	</g>
</g>
<g>
	<g>
		<path d="M162.133,418.133H68.267c-4.71,0-8.533,3.814-8.533,8.533s3.823,8.533,8.533,8.533h93.867c4.71,0,8.533-3.814,8.533-8.533
			S166.844,418.133,162.133,418.133z"/>
	</g>
</g>
<g>
	<g>
		<path d="M364.433,343.834c-3.328-3.337-8.738-3.337-12.066,0l-34.133,34.133c-3.336,3.337-3.336,8.73,0,12.066
			c1.664,1.664,3.849,2.5,6.033,2.5c2.185,0,4.369-0.836,6.033-2.5l34.133-34.133C367.77,352.563,367.77,347.17,364.433,343.834z"/>
	</g>
</g>
<g>
	<g>
		<path d="M398.566,377.967l-34.133-34.133c-3.328-3.337-8.738-3.337-12.066,0c-3.337,3.337-3.337,8.73,0,12.066l34.133,34.133
			c1.664,1.664,3.849,2.5,6.033,2.5c2.185,0,4.369-0.836,6.033-2.5C401.903,386.697,401.903,381.303,398.566,377.967z"/>
	</g>
</g>
<g>
	<g>
		<path d="M415.633,326.767c-3.328-3.337-8.738-3.337-12.066,0L369.434,360.9c-3.336,3.337-3.336,8.73,0,12.066
			c1.664,1.664,3.849,2.5,6.033,2.5c2.185,0,4.369-0.836,6.033-2.5l34.133-34.133C418.97,335.497,418.97,330.103,415.633,326.767z"
			/>
	</g>
</g>
<g>
	<g>
		<path d="M449.766,360.9l-34.133-34.133c-3.328-3.337-8.738-3.337-12.066,0c-3.337,3.337-3.337,8.73,0,12.066l34.133,34.133
			c1.664,1.664,3.849,2.5,6.033,2.5c2.185,0,4.369-0.836,6.033-2.5C453.103,369.63,453.103,364.237,449.766,360.9z"/>
	</g>
</g>
<g>
	<g>
		<path d="M443.733,452.267H307.2c-4.71,0-8.533,3.814-8.533,8.533c0,4.719,3.823,8.533,8.533,8.533h136.533
			c4.71,0,8.533-3.814,8.533-8.533C452.267,456.081,448.444,452.267,443.733,452.267z"/>
	</g>
</g>
<g>
	<g>
		<path d="M401.067,418.133H307.2c-4.71,0-8.533,3.814-8.533,8.533s3.823,8.533,8.533,8.533h93.867c4.71,0,8.533-3.814,8.533-8.533
			S405.777,418.133,401.067,418.133z"/>
	</g>
</g>
<g>
</g>
<g>
</g>
<g>
</g>
<g>
</g>
<g>
</g>
<g>
</g>
<g>
</g>
<g>
</g>
<g>
</g>
<g>
</g>
<g>
</g>
<g>
</g>
<g>
</g>
<g>
</g>
<g>
</g>
</svg>
