<?xml version="1.0" encoding="iso-8859-1"?>
<!-- Generator: Adobe Illustrator 19.0.0, SVG Export Plug-In . SVG Version: 6.00 Build 0)  -->
<svg style='fill: #fff !important;'  version="1.1" id="Capa_1" xmlns="http://www.w3.org/2000/svg" xmlns:xlink="http://www.w3.org/1999/xlink" x="0px" y="0px"
	 viewBox="0 0 512 512" xml:space="preserve">
<g>
	<g>
		<g>
			<path d="M496.533,452.685c28.199-49.531,16.726-112.162-27.2-148.48v-69.547H480c5.891,0,10.667-4.776,10.667-10.667v-32h10.667
				c5.891-0.014,10.655-4.801,10.641-10.692c-0.008-3.477-1.71-6.732-4.562-8.721L262.08,1.911c-3.656-2.537-8.504-2.537-12.16,0
				L4.587,172.578c-4.831,3.372-6.013,10.021-2.642,14.852c1.99,2.851,5.245,4.553,8.722,4.561h10.667v32
				c0,5.891,4.776,10.667,10.667,10.667h10.667v170.667H32c-5.891,0-10.667,4.776-10.667,10.667v33.92
				C8.579,454.421,0.038,466.463,0,479.991v21.333c0,5.891,4.776,10.667,10.667,10.667h490.667c5.891,0,10.667-4.776,10.667-10.667
				v-21.333C511.968,468.812,506.105,458.46,496.533,452.685z M469.333,213.325H384v-21.333h85.333V213.325z M448,234.658v55.573
				c-13.295-6.828-27.781-11.03-42.667-12.373v-43.2H448z M256,23.671l211.307,146.987H44.693L256,23.671z M138.667,405.325H128
				V234.658h10.667c5.891,0,10.667-4.776,10.667-10.667v-32H192v32c0,5.891,4.776,10.667,10.667,10.667h10.667v170.667h-10.667
				c-5.891,0-10.667,4.776-10.667,10.667v32h-42.667v-32C149.333,410.1,144.558,405.325,138.667,405.325z M213.333,426.658h68.587
				c2.1,7.371,4.922,14.517,8.427,21.333h-77.013V426.658z M234.667,405.325V234.658h42.667v170.667H234.667z M288,213.325h-74.667
				v-21.333h85.333v21.333H288z M298.667,234.658h10.667c5.891,0,10.667-4.776,10.667-10.667v-32h42.667v32
				c0,5.891,4.776,10.667,10.667,10.667H384v43.2c-34.335,3.158-65.543,21.259-85.333,49.493V234.658z M42.667,191.991H128v21.333
				H42.667V191.991z M106.667,234.658v170.667H64V234.658H106.667z M42.667,426.658H128v21.333H42.667V426.658z M21.333,490.658
				v-10.667c0-5.891,4.776-10.667,10.667-10.667h272.213c6.731,8.11,14.515,15.285,23.147,21.333H21.333z M490.667,490.658h-28.8
				c8.309-5.803,15.838-12.65,22.4-20.373c3.864,1.686,6.372,5.491,6.4,9.707V490.658z M394.667,490.658c-53.019,0-96-42.981-96-96
				s42.981-96,96-96s96,42.981,96,96S447.686,490.658,394.667,490.658z"/>
			<path d="M380.16,130.018L262.827,44.685l-13.12,17.28l90.773,66.027H149.333v21.333h224c4.809,0.235,9.18-2.78,10.667-7.36
				C385.446,137.571,383.895,132.746,380.16,130.018z"/>
			<path d="M416,341.325h-10.667v-21.333H384v21.333h-10.667c-11.782,0-21.333,9.551-21.333,21.333v21.333
				c0,11.782,9.551,21.333,21.333,21.333H416v21.333h-42.667v-10.667H352v10.667c0,11.782,9.551,21.333,21.333,21.333H384v21.333
				h21.333v-21.333H416c11.782,0,21.333-9.551,21.333-21.333v-21.333c0-11.782-9.551-21.333-21.333-21.333h-42.667v-21.333H416
				v10.667h21.333v-10.667C437.333,350.876,427.782,341.325,416,341.325z"/>
		</g>
	</g>
</g>
<g>
</g>
<g>
</g>
<g>
</g>
<g>
</g>
<g>
</g>
<g>
</g>
<g>
</g>
<g>
</g>
<g>
</g>
<g>
</g>
<g>
</g>
<g>
</g>
<g>
</g>
<g>
</g>
<g>
</g>
</svg>
